<!DOCTYPE svg PUBLIC "-//W3C//DTD SVG 20010904//EN" "http://www.w3.org/TR/2001/REC-SVG-20010904/DTD/svg10.dtd">
<svg version="1.0" xmlns="http://www.w3.org/2000/svg" width="800px" height="800px" viewBox="0 0 8000 8000" preserveAspectRatio="xMidYMid meet">
<g id="layer101" fill="#8f3748" stroke="none">
 <path d="M7 7993 c-4 -3 -7 -772 -7 -1707 l0 -1701 217 4 c842 13 1641 -185 2306 -571 83 -48 94 -36 -136 -152 -490 -249 -963 -387 -1547 -453 -122 -13 -228 -17 -497 -15 l-343 2 0 -1700 0 -1700 1695 0 1695 0 -2 308 c-3 636 89 1151 304 1699 55 143 207 460 261 547 l24 38 56 -98 c275 -483 461 -1073 532 -1689 23 -195 37 -533 30 -677 l-7 -128 1706 0 1706 0 0 1689 c0 1362 -2 1691 -13 1699 -9 8 -69 8 -202 1 -384 -20 -862 21 -1240 106 -373 84 -757 228 -1080 403 -145 79 -141 66 -34 129 134 79 391 202 549 262 74 29 145 56 156 60 45 19 334 101 439 125 403 90 709 120 1138 110 l287 -7 0 1711 0 1712 -1705 0 -1706 0 2 -317 c2 -325 -6 -448 -42 -713 -63 -451 -198 -895 -394 -1295 -79 -161 -176 -335 -186 -335 -8 0 -100 162 -152 265 -226 454 -362 931 -423 1485 -19 170 -25 625 -11 808 l8 102 -1689 0 c-929 0 -1692 -3 -1695 -7z"/>
 </g>
<g id="layer102" fill="#e84545" stroke="none">
 <path d="M7 7993 c-4 -3 -7 -772 -7 -1707 l0 -1701 217 4 c814 13 1611 -178 2247 -538 118 -66 132 -72 155 -61 54 25 312 203 441 306 165 131 481 446 612 609 97 122 230 306 274 381 l24 42 -51 88 c-280 485 -455 1043 -525 1674 -19 170 -25 625 -11 808 l8 102 -1689 0 c-929 0 -1692 -3 -1695 -7z"/>
 <path d="M4897 7563 c55 -350 147 -643 292 -933 165 -329 343 -572 612 -836 362 -353 770 -597 1246 -743 194 -59 498 -121 597 -121 l26 0 0 1330 0 1330 -1389 0 -1388 0 4 -27z"/>
 <path d="M5255 3928 c-459 -314 -769 -604 -1050 -982 -98 -132 -225 -327 -225 -346 0 -8 25 -57 55 -109 273 -480 459 -1071 530 -1686 23 -195 37 -533 30 -677 l-7 -128 1706 0 1706 0 0 1689 c0 1362 -2 1691 -13 1699 -9 8 -69 8 -202 1 -384 -20 -862 21 -1240 106 -386 87 -769 232 -1104 417 -58 32 -109 58 -115 57 -6 0 -38 -18 -71 -41z"/>
 <path d="M340 1724 l0 -1394 1400 0 c1374 0 1400 0 1400 19 0 47 -53 328 -85 449 -213 809 -756 1513 -1485 1924 -162 92 -228 124 -365 178 -285 113 -502 169 -832 214 l-33 5 0 -1395z"/>
 </g>
<g id="layer103" fill="#ffffff" stroke="none">
 <path d="M4897 7563 c55 -350 147 -643 292 -933 165 -329 343 -572 612 -836 362 -353 770 -597 1246 -743 194 -59 498 -121 597 -121 l26 0 0 1330 0 1330 -1389 0 -1388 0 4 -27z"/>
 <path d="M340 1724 l0 -1394 1400 0 c1374 0 1400 0 1400 19 0 47 -53 328 -85 449 -213 809 -756 1513 -1485 1924 -162 92 -228 124 -365 178 -285 113 -502 169 -832 214 l-33 5 0 -1395z"/>
 </g>

</svg>